<?xml version="1.0" encoding="utf-8"?>
<!-- Generator: Adobe Illustrator 21.0.2, SVG Export Plug-In . SVG Version: 6.00 Build 0)  -->
<svg version="1.1" id="Layer_1" xmlns="http://www.w3.org/2000/svg" xmlns:xlink="http://www.w3.org/1999/xlink" x="0px" y="0px"
	 viewBox="0 0 92 92" style="enable-background:new 0 0 92 92;" xml:space="preserve">
<style type="text/css">
	.st0{display:none;fill:#fff;stroke:#000000;stroke-miterlimit:10;}
</style>
<circle class="st0" cx="46.5" cy="45.5" r="44"/>
<g>
	<g>
		<path d="M47.1,17.4l8,13.7l0.9,1.6L62.6,44l7.9-13.7c-1.4-2.1-3-4.1-5-5.9C60.1,19.8,53.6,17.5,47.1,17.4z"/>
		<path d="M62.6,47.3l-6.5,11.4l15.8,0c4.3-8.4,4.1-18.5-0.5-26.7l-7.9,13.8L62.6,47.3z"/>
		<path d="M53.2,60.3l-13.1,0l8,13.7c7.4-0.4,14.6-3.6,19.8-9.5c1.2-1.3,2.2-2.8,3.1-4.2l-15.9,0L53.2,60.3z"/>
		<path d="M37.3,58.7l-6.6-11.4l-7.9,13.7c1.4,2.1,3,4.1,5,5.9c5.3,4.7,11.8,7,18.4,7.1l-8-13.7L37.3,58.7z"/>
		<path d="M30.7,44.1l6.5-11.4l-15.8,0c-4.3,8.4-4.1,18.5,0.5,26.7l7.9-13.8L30.7,44.1z"/>
		<path d="M40,31.1l13.1,0l-8-13.7c-7.4,0.4-14.6,3.6-19.8,9.5c-1.2,1.3-2.2,2.8-3.1,4.2l15.9,0L40,31.1z"/>
	</g>
	<g>
		<path d="M43.9,49.6H39l-0.8,2.6c-0.1,0.4-0.3,0.4-0.7,0.4h-2.1c-0.3,0-0.5-0.1-0.3-0.7l4.2-12.7c0.2-0.5,0.3-0.6,0.7-0.6h2.9
			c0.4,0,0.5,0.1,0.7,0.6l4.2,12.7c0.2,0.6,0,0.7-0.3,0.7h-2.1c-0.3,0-0.5,0-0.7-0.4L43.9,49.6z M39.8,47.1h3.3l-1.7-5.6L39.8,47.1z
			"/>
		<path d="M50.3,47v5c0,0.5-0.1,0.6-0.6,0.6h-2c-0.4,0-0.6-0.1-0.6-0.6V39.3c0-0.5,0.1-0.6,0.6-0.6h3.4c3.8,0,6.1,0.9,6.1,4.2
			c0,2.1-1,3.3-2.6,3.8c0.7,0.5,1.2,1.4,2,3.1c0.2,0.4,0.4,0.4,0.8,0.4c0.2,0,0.3,0,0.6-0.1c0.3-0.1,0.3,0,0.3,0.2v1.7
			c0,0.3-0.1,0.4-0.4,0.6c-0.4,0.2-1,0.3-1.5,0.3c-1.3,0-2-0.4-2.7-1.8c-0.6-1.3-1.3-4-3.1-4H50.3z M51.4,45.1
			c1.7,0,2.5-0.8,2.5-2.1c0-1.4-0.9-1.8-2.6-1.8h-0.9v3.9H51.4z"/>
	</g>
</g>
</svg>
