<?xml version="1.0" encoding="utf-8"?>
<!-- Generator: Adobe Illustrator 21.0.2, SVG Export Plug-In . SVG Version: 6.00 Build 0)  -->
<svg version="1.1" id="Layer_1" xmlns="http://www.w3.org/2000/svg" xmlns:xlink="http://www.w3.org/1999/xlink" x="0px" y="0px"
	 viewBox="0 0 92 92" style="enable-background:new 0 0 92 92;" xml:space="preserve">
<style type="text/css">
	.st0{display:none;fill:#FFFFFF;stroke:#000000;stroke-miterlimit:10;}
</style>
<circle class="st0" cx="46.5" cy="46.5" r="44"/>
<path d="M57.6,53.3h-2.3l-0.8-0.8c2.8-3.3,4.5-7.6,4.5-12.2c0-10.4-8.4-18.8-18.8-18.8s-18.8,8.4-18.8,18.8S29.9,59,40.3,59
	c4.6,0,8.9-1.7,12.2-4.5l0.8,0.8v2.3L67.7,72l4.3-4.3L57.6,53.3z M40.3,53.3c-7.2,0-13-5.8-13-13s5.8-13,13-13s13,5.8,13,13
	S47.5,53.3,40.3,53.3z"/>
<path d="M40,46.8l-6.5-5.1L32,42.8l8,6.2l8-6.2l-1.4-1.1L40,46.8z M40,44.5l6.5-5.1l1.5-1.1l-8-6.2l-8,6.2l1.4,1.1L40,44.5z"/>
</svg>
